<svg id="Layer_1" data-name="Layer 1" xmlns="http://www.w3.org/2000/svg" width="319.19" height="242.5" viewBox="0 0 319.19 242.5">
  <ellipse cx="92.74" cy="121.25" rx="80.74" ry="109.25" style="fill: #212e3e;fill-opacity: 0.5;stroke: #90c63e;stroke-miterlimit: 10;stroke-width: 24px"/>
  <ellipse cx="244.18" cy="129.38" rx="63.01" ry="73.63" style="fill: #90c63e;fill-opacity: 0.5;stroke: #212e3e;stroke-miterlimit: 10;stroke-width: 24px"/>
  <g>
    <path d="M214.44,123.17v-35h13.47a19.79,19.79,0,0,1,7.66,1.39,15.36,15.36,0,0,1,8.88,9.3,20,20,0,0,1,1.14,6.79,19.73,19.73,0,0,1-1.26,7.23,15.59,15.59,0,0,1-3.58,5.53,16,16,0,0,1-5.58,3.55,20,20,0,0,1-7.26,1.26Zm21.37-17.57a12,12,0,0,0-.54-3.7A8.33,8.33,0,0,0,233.72,99a7.13,7.13,0,0,0-2.5-1.85,8.05,8.05,0,0,0-3.31-.66h-3.85v18.26h3.85a7.85,7.85,0,0,0,3.36-.69,7,7,0,0,0,2.49-1.92,8.39,8.39,0,0,0,1.53-2.92A12.15,12.15,0,0,0,235.81,105.6Z" transform="translate(0 0)" style="fill: #212e3e"/>
    <path d="M262,123.67a16.49,16.49,0,0,1-6.08-1.06,12.89,12.89,0,0,1-4.46-2.89,12.26,12.26,0,0,1-2.74-4.2,13.32,13.32,0,0,1-.94-5,15.42,15.42,0,0,1,.91-5.33,12.39,12.39,0,0,1,2.72-4.4,13.09,13.09,0,0,1,4.44-3,17.36,17.36,0,0,1,12.27,0,13.18,13.18,0,0,1,4.46,3,12.07,12.07,0,0,1,2.72,4.29,14.44,14.44,0,0,1,.91,5.11c0,.49,0,1-.07,1.51s-.11,1-.17,1.35H257.73a3.65,3.65,0,0,0,1.53,3,5.35,5.35,0,0,0,3,.91,6.31,6.31,0,0,0,2.89-.69,3.46,3.46,0,0,0,1.8-1.92l8,2.27a12.59,12.59,0,0,1-4.86,5.08A15.37,15.37,0,0,1,262,123.67Zm4.14-16.24a4.82,4.82,0,0,0-1.38-3,4.47,4.47,0,0,0-5.83,0,4.93,4.93,0,0,0-1.38,3Z" transform="translate(0 0)" style="fill: #212e3e"/>
    <path d="M226.34,169.17v-35h24v8.4H236v5.82h11.75v7.8H236v13Z" transform="translate(0 0)" style="fill: #212e3e"/>
    <path d="M253.29,141v-7.9h9.38V141Zm0,28.13v-26h9.38v26Z" transform="translate(0 0)" style="fill: #212e3e"/>
  </g>
  <g>
    <path d="M71.68,129.11v11.22H38.29V93.47h32.8v11.22H51.16v6.6h17v10.43h-17v7.39Z" transform="translate(0 0)" style="fill: #90c63e"/>
    <path d="M74.26,123a19.05,19.05,0,0,1,1.25-6.83,16.86,16.86,0,0,1,3.66-5.74,17.75,17.75,0,0,1,6-4A21.09,21.09,0,0,1,93.33,105a19.71,19.71,0,0,1,10.59,2.64,17,17,0,0,1,6.37,6.8l-12.21,3.7a5.55,5.55,0,0,0-4.81-2.58,5.68,5.68,0,0,0-4.36,1.95,9.42,9.42,0,0,0,0,11,5.68,5.68,0,0,0,4.36,2,5.56,5.56,0,0,0,4.81-2.57l12.21,3.69a17,17,0,0,1-6.37,6.8A19.71,19.71,0,0,1,93.33,141a21.09,21.09,0,0,1-8.18-1.49,17.6,17.6,0,0,1-6-4,16.76,16.76,0,0,1-3.66-5.74A19,19,0,0,1,74.26,123Z" transform="translate(0 0)" style="fill: #90c63e"/>
    <path d="M131,141a21.12,21.12,0,0,1-8.22-1.49,17.72,17.72,0,0,1-5.94-4,16.4,16.4,0,0,1-3.63-5.74,19.73,19.73,0,0,1,0-13.66,16.49,16.49,0,0,1,3.63-5.74,17.87,17.87,0,0,1,5.94-4,23.34,23.34,0,0,1,16.41,0,17.8,17.8,0,0,1,6,4,16.49,16.49,0,0,1,3.63,5.74,19.73,19.73,0,0,1,0,13.66,16.4,16.4,0,0,1-3.63,5.74,17.65,17.65,0,0,1-6,4A21.17,21.17,0,0,1,131,141Zm-6.14-18a8.07,8.07,0,0,0,1.72,5.48,5.92,5.92,0,0,0,8.84,0,9.59,9.59,0,0,0,0-11,5.92,5.92,0,0,0-8.84,0A8.07,8.07,0,0,0,124.81,123Z" transform="translate(0 0)" style="fill: #90c63e"/>
  </g>
</svg>
