<svg xmlns="http://www.w3.org/2000/svg" viewBox="0 0 460 460"><g id="eyes_with_geometry" data-name="eyes with geometry"><polygon points="378.51 144.25 230 58.51 81.49 144.25 81.49 315.75 230 401.49 378.51 315.75 378.51 144.25" style="fill:#91c73e"/><path d="M230,460,30.81,345V115L230,0,429.19,115V345ZM60.92,327.62,230,425.24l169.08-97.62V132.38L230,34.76,60.92,132.38Z" style="fill:#212e3e"/><g id="shaded_bits" data-name="shaded bits"><g id="shade_white" data-name="shade white"><path d="M344.43,235.92a191.41,191.41,0,0,1,20.89,3.82c-.69,33.07-23.13,59.73-50.61,59.73s-49.87-26.59-50.6-59.61a248.08,248.08,0,0,1,29.15-4.5,17.38,17.38,0,0,0-.82,5.3c0,11.75,11.78,21.28,26.32,21.28s26.33-9.53,26.33-21.28A17.45,17.45,0,0,0,344.43,235.92Z" style="fill:#fff"/><path d="M231.63,231.63c-.29,26-7.81,50.18-21.22,68.33C197.52,317.4,180.75,327,163.15,327S128.79,317.4,115.91,300c-12.1-16.37-19.4-37.67-20.94-60.74A307.34,307.34,0,0,1,146,229.77a19.91,19.91,0,0,0-1.81,8.27c0,13.2,13.23,23.9,29.56,23.9s29.56-10.7,29.56-23.9a20,20,0,0,0-2.45-9.55C210.73,229,221,230.05,231.63,231.63Z" style="fill:#fff"/></g></g><path id="outline" d="M115.91,160c12.88-17.44,29.66-27,47.24-27,12.75,0,25.06,5.07,35.78,14.48A79.23,79.23,0,0,1,210.41,160a104.11,104.11,0,0,1,14.82,29.15,123.87,123.87,0,0,1,4.43,17.63A369.54,369.54,0,0,0,154,204.56l-.48,0h-.21A346.42,346.42,0,0,0,103.09,212c-2.69.61-5.19,1.22-7.47,1.8a124.28,124.28,0,0,1,6-26.43A103.25,103.25,0,0,1,115.91,160Zm245.31,54c-32.82-6.32-63.72-4.24-84.86-1.09-2.94.44-5.71.89-8.25,1.35.72-2.05,1.54-4.05,2.43-6,8.68-18.7,25.23-31.37,44.17-31.37,16.27,0,30.77,9.34,40,23.82A65.41,65.41,0,0,1,361.22,214Zm-73.44,22c1.78-.21,3.59-.41,5.48-.59a17.42,17.42,0,0,0-.82,5.3c0,6.61,3.73,12.52,9.58,16.42a30.26,30.26,0,0,0,16.74,4.86,30.62,30.62,0,0,0,15.08-3.86c6.8-3.84,11.25-10.21,11.25-17.42v0a16.38,16.38,0,0,0-.16-2.33v-.08a17.56,17.56,0,0,0-.48-2.29c2.74.35,5.5.77,8.28,1.24q4.4.75,8.84,1.73c1.26.27,2.51.55,3.77.85-.65,31-20.41,56.37-45.52,59.42a40.8,40.8,0,0,1-5.09.31c-24,0-44.18-20.36-49.34-47.57a72.87,72.87,0,0,1-1.26-12c3.55-.78,8.12-1.67,13.46-2.51C280.71,236.85,284.12,236.37,287.78,236Zm-124,91-.66,0a48.66,48.66,0,0,1-9.78-1l-.66-.16c-10.19-2.25-19.87-7.77-28.41-16.18a81.83,81.83,0,0,1-8.39-9.71,99.88,99.88,0,0,1-11-19.09,124,124,0,0,1-10-41.64A305.81,305.81,0,0,1,146,229.77c-.12.28-.22.57-.33.85a19.64,19.64,0,0,0-1.48,7.42c0,13.2,13.23,23.9,29.56,23.9,11.09,0,20.75-4.95,25.8-12.25A20.34,20.34,0,0,0,203.34,238a19.81,19.81,0,0,0-.59-4.75c0-.06,0-.13,0-.2s0,0,0-.06a21.05,21.05,0,0,0-1.8-4.54c9.84.55,20.12,1.56,30.74,3.14-.29,25.76-7.7,49.79-20.92,67.9l-.3.43c-.14.18-.28.35-.41.53C197.33,317.37,181,326.75,163.81,327Zm225.74-84.73c.05-1.19.07-2.38.07-3.58,0-.17,0-.33,0-.5,0-41.3-25.73-75.85-59.84-83.85-.55-.13-1.12-.22-1.68-.34-1.9-.39-3.81-.73-5.75-1a66.73,66.73,0,0,0-7.65-.44c-26.57,0-50,15.89-63.27,39.79A132,132,0,0,0,230,145.59a106.16,106.16,0,0,0-13.79-15.35l-.48-.45c-.27-.25-.56-.47-.83-.71-12.55-11-26.95-17.8-42.23-19.78l-.18,0a73.45,73.45,0,0,0-9.29-.59h0c-19,0-36.93,7.26-52.13,20.77A105.29,105.29,0,0,0,96.36,145.6c-16.76,22.69-26,52.66-26,84.4q0,5.43.36,10.77c.06,1,.15,2,.23,3,.05.58.1,1.16.16,1.74a150.33,150.33,0,0,0,7.58,35c.78,2.24,1.62,4.44,2.5,6.61,1.64,3.73,3.51,7.67,5.68,11.75,2.27,4.29,4.59,8.22,6.86,11.81l.82,1.15c.59.86,1.18,1.72,1.8,2.56a103.28,103.28,0,0,0,17.8,18.8c14.51,11.79,31.33,18.1,49,18.1,15.94,0,31.18-5.12,44.66-14.77A100.3,100.3,0,0,0,230,314.41a128,128,0,0,0,18.49-36.35C261,305.22,286,323.77,314.71,323.77c26,0,48.87-15.17,62.32-38.15a90.83,90.83,0,0,0,8.18-18.43,108.43,108.43,0,0,0,2.91-12.31A106.52,106.52,0,0,0,389.55,242.26Z" style="fill:#212e3e"/></g></svg>